<?xml version="1.0" encoding="utf-8"?>
<!DOCTYPE svg PUBLIC "-//W3C//DTD SVG 20010904//EN" "http://www.w3.org/TR/2001/REC-SVG-20010904/DTD/svg10.dtd">
<svg version="1.0" xmlns="http://www.w3.org/2000/svg" width="787pt" height="787pt" viewBox="0 0 787 787" style="" preserveAspectRatio="xMidYMid meet">
<g fill="#123753FF" stroke="#123753FF">
<path d="M 160.000 2.665 C 136.023 5.154 110.161 13.380 90.429 24.793 C 41.523 53.081 10.045 100.701 3.053 156.974 C 1.588 168.760 1.588 619.240 3.053 631.026 C 6.454 658.401 16.252 685.441 30.583 707.000 C 54.287 742.661 88.110 767.478 129.266 779.404 C 151.909 785.966 131.680 785.500 394.000 785.500 C 617.501 785.500 632.044 785.395 640.736 783.722 C 670.690 777.954 697.281 766.022 719.287 748.472 C 756.526 718.773 779.050 678.485 784.947 631.026 C 786.412 619.240 786.412 168.760 784.947 156.974 C 779.057 109.566 756.487 69.195 719.287 39.528 C 697.496 22.150 671.458 10.396 641.262 4.304 C 633.043 2.646 617.971 2.529 398.000 2.419 C 269.025 2.355 161.925 2.465 160.000 2.665 M 435.000 43.488 C 457.986 46.603 474.045 49.427 476.696 50.820 C 477.688 51.341 480.525 52.081 483.000 52.463 C 487.196 53.111 496.552 55.709 503.500 58.155 C 505.150 58.736 508.413 59.689 510.750 60.274 C 513.088 60.859 515.000 61.694 515.000 62.130 C 515.000 62.566 516.913 63.412 519.250 64.009 C 521.588 64.606 525.075 65.809 527.000 66.682 C 528.925 67.555 531.850 68.845 533.500 69.548 C 535.150 70.251 539.060 71.990 542.188 73.413 C 545.317 74.836 548.299 76.000 548.816 76.000 C 549.332 76.000 550.315 76.675 551.000 77.500 C 551.685 78.325 553.058 79.000 554.051 79.000 C 555.044 79.000 556.452 79.566 557.179 80.257 C 557.905 80.949 561.407 83.020 564.961 84.860 C 568.514 86.700 574.446 90.180 578.143 92.593 C 581.840 95.007 586.020 97.508 587.433 98.151 C 588.845 98.795 590.000 99.627 590.000 100.000 C 590.000 100.373 591.142 101.199 592.538 101.835 C 593.933 102.471 595.621 103.446 596.288 104.001 C 596.954 104.556 600.200 107.067 603.500 109.581 C 608.971 113.750 609.853 114.097 613.500 113.525 C 615.700 113.179 618.807 112.245 620.404 111.448 C 624.297 109.506 634.985 109.597 639.716 111.612 C 649.940 115.966 657.000 120.584 657.000 122.917 C 657.000 123.474 657.900 124.411 659.000 125.000 C 660.100 125.589 661.000 126.716 661.000 127.504 C 661.000 128.293 661.951 130.762 663.113 132.992 C 664.979 136.572 665.169 138.238 664.741 147.272 C 664.360 155.330 663.775 158.419 661.984 161.833 C 658.647 168.189 651.296 175.242 644.812 178.309 C 639.885 180.640 637.857 181.000 629.661 181.000 C 618.601 181.000 612.553 178.799 605.638 172.256 C 600.166 167.078 599.691 166.335 595.394 156.216 C 593.719 152.271 593.553 140.076 595.127 136.621 C 596.527 133.547 595.511 129.115 593.220 128.308 C 592.274 127.975 590.600 126.917 589.500 125.958 C 586.327 123.192 571.015 113.000 570.033 113.000 C 569.543 113.000 568.548 112.422 567.821 111.716 C 566.375 110.311 559.705 106.333 552.261 102.436 C 549.642 101.065 546.825 99.554 546.000 99.079 C 545.175 98.603 543.375 97.719 542.000 97.114 C 540.625 96.509 538.825 95.628 538.000 95.155 C 536.474 94.281 531.163 91.780 522.934 88.063 C 520.423 86.928 517.931 86.000 517.397 86.000 C 516.862 86.000 512.634 84.425 508.000 82.500 C 503.366 80.575 498.658 78.985 497.538 78.966 C 496.417 78.947 493.700 78.063 491.500 77.000 C 489.300 75.937 486.584 75.053 485.465 75.034 C 484.346 75.015 480.870 74.100 477.740 73.000 C 474.611 71.900 470.744 71.000 469.147 71.000 C 467.551 71.000 464.727 70.375 462.872 69.610 C 461.017 68.846 456.575 67.920 453.000 67.552 C 449.425 67.184 443.125 66.128 439.000 65.205 C 428.245 62.798 365.675 62.821 353.000 65.237 C 348.325 66.127 342.025 67.150 339.000 67.508 C 335.975 67.866 331.250 68.755 328.500 69.482 C 318.478 72.133 310.411 74.120 306.500 74.903 C 301.995 75.805 290.302 79.581 287.967 80.888 C 287.124 81.360 284.874 82.080 282.967 82.488 C 281.060 82.897 278.375 83.781 277.000 84.453 C 268.333 88.690 265.398 90.005 264.610 90.003 C 262.038 89.995 234.209 104.389 221.114 112.500 C 217.464 114.761 207.465 121.469 207.000 121.968 C 206.725 122.264 204.490 123.854 202.034 125.503 C 199.577 127.151 196.877 129.091 196.034 129.813 C 195.190 130.535 192.712 132.478 190.527 134.131 C 174.666 146.127 150.132 170.973 134.003 191.375 C 128.079 198.869 117.000 214.593 117.000 215.507 C 117.000 215.744 115.300 218.539 113.222 221.719 C 108.268 229.300 107.671 230.337 103.851 238.000 C 102.068 241.575 100.023 245.095 99.305 245.821 C 98.587 246.548 98.000 247.644 98.000 248.256 C 98.000 249.333 95.200 255.881 92.552 261.000 C 87.915 269.960 88.599 277.003 94.359 279.621 C 96.087 280.406 100.200 282.562 103.500 284.411 C 111.405 288.840 124.791 296.001 133.500 300.460 C 137.350 302.431 141.175 304.452 142.000 304.950 C 142.825 305.448 144.175 306.135 145.000 306.476 C 145.825 306.816 148.300 308.117 150.500 309.365 L 154.500 311.634 154.761 353.500 C 154.982 388.983 155.250 395.619 156.516 397.018 C 157.770 398.404 169.545 404.606 179.000 408.860 C 180.375 409.479 182.175 410.362 183.000 410.822 C 188.565 413.926 193.101 416.000 194.326 416.000 C 195.112 416.000 196.291 416.646 196.947 417.436 C 197.602 418.225 199.426 419.154 201.000 419.500 C 202.574 419.846 204.361 420.730 204.972 421.466 C 205.582 422.202 207.234 423.093 208.641 423.446 C 210.049 423.799 212.505 425.053 214.100 426.232 L 217.000 428.376 217.000 499.153 C 217.000 568.104 217.050 569.956 218.934 570.965 C 219.998 571.534 225.440 572.000 231.028 572.000 C 239.870 572.000 241.244 571.773 241.625 570.250 C 241.866 569.288 242.162 535.425 242.282 495.000 L 242.500 421.500 247.000 417.350 C 249.475 415.067 252.850 411.955 254.500 410.434 C 259.872 405.482 281.036 385.639 286.960 380.000 C 290.138 376.975 299.322 368.244 307.369 360.597 L 322.000 346.694 322.000 262.233 L 322.000 177.773 329.826 170.136 C 337.476 162.670 361.540 139.878 367.500 134.452 C 374.808 127.799 391.618 112.211 394.678 109.250 C 398.783 105.277 401.397 105.133 403.719 108.750 C 405.989 112.286 406.477 112.947 409.222 116.202 C 410.475 117.689 412.297 119.939 413.271 121.202 C 415.300 123.836 430.073 143.317 432.729 146.864 C 433.703 148.164 435.288 149.951 436.250 150.836 C 437.213 151.721 438.000 152.805 438.000 153.246 C 438.000 153.686 441.284 158.199 445.298 163.273 C 449.312 168.348 453.585 173.917 454.794 175.648 L 456.992 178.797 457.246 293.148 L 457.500 407.500 506.000 408.000 L 554.500 408.500 554.756 488.905 C 554.939 546.285 555.332 569.695 556.128 570.655 C 557.718 572.570 579.285 572.567 580.875 570.651 C 581.688 569.671 582.063 525.044 582.247 407.401 L 582.500 245.500 646.000 245.215 C 680.925 245.058 710.871 245.173 712.547 245.472 C 715.180 245.941 716.030 246.967 718.797 253.012 C 720.559 256.861 722.014 260.570 722.032 261.255 C 722.049 261.940 722.724 263.374 723.532 264.441 C 724.339 265.509 725.015 267.084 725.034 267.941 C 725.053 268.799 725.937 271.300 727.000 273.500 C 728.063 275.700 728.947 278.275 728.966 279.223 C 728.985 280.171 729.850 282.871 730.890 285.223 C 732.928 289.836 734.400 294.995 736.419 304.604 C 737.124 307.961 738.086 311.330 738.555 312.089 C 739.024 312.848 739.960 316.852 740.634 320.985 C 741.308 325.118 742.317 330.300 742.878 332.500 C 743.802 336.130 744.387 340.350 747.039 362.500 C 748.108 371.435 748.131 416.293 747.070 425.500 C 744.651 446.509 743.730 452.971 742.508 457.500 C 741.767 460.250 740.849 464.975 740.469 468.000 C 740.089 471.025 739.183 474.945 738.456 476.712 C 737.729 478.478 736.820 482.078 736.437 484.712 C 736.054 487.345 735.124 490.715 734.370 492.200 C 733.617 493.686 733.000 495.852 733.000 497.015 C 733.000 498.178 732.168 501.238 731.152 503.815 C 729.390 508.281 728.085 511.842 725.767 518.500 C 725.193 520.150 724.162 522.625 723.477 524.000 C 722.792 525.375 721.925 527.931 721.551 529.681 C 721.177 531.430 720.225 533.398 719.436 534.053 C 718.646 534.709 718.000 535.723 718.000 536.307 C 718.000 538.309 709.239 556.629 707.250 558.787 C 706.563 559.533 706.000 560.571 706.000 561.094 C 706.000 561.618 703.863 565.648 701.250 570.050 C 698.638 574.452 696.050 578.829 695.500 579.777 C 690.967 587.584 677.035 607.431 673.523 611.084 C 672.685 611.955 672.000 613.093 672.000 613.612 C 672.000 614.131 671.213 615.261 670.250 616.122 C 669.288 616.984 666.025 620.565 663.000 624.081 C 651.590 637.342 638.354 650.783 628.500 659.114 C 626.300 660.975 624.275 662.767 624.000 663.097 C 623.599 663.578 604.449 678.777 600.499 681.747 C 597.593 683.934 586.870 691.000 586.458 691.000 C 586.195 691.000 583.710 692.595 580.935 694.545 C 578.161 696.495 574.903 698.531 573.696 699.069 C 572.488 699.607 569.700 701.098 567.500 702.383 C 565.300 703.667 559.225 706.841 554.000 709.435 C 548.775 712.029 542.836 715.018 540.802 716.076 C 538.768 717.134 536.495 718.000 535.752 718.000 C 535.008 718.000 533.892 718.508 533.270 719.130 C 532.076 720.324 524.200 723.361 517.500 725.210 C 515.300 725.818 512.612 726.919 511.527 727.657 C 510.443 728.396 508.643 729.015 507.527 729.034 C 506.412 729.053 503.700 729.937 501.500 731.000 C 499.300 732.063 496.584 732.947 495.465 732.966 C 494.346 732.985 490.870 733.900 487.740 735.000 C 484.611 736.100 480.899 737.000 479.493 737.000 C 478.086 737.000 475.392 737.645 473.506 738.433 C 471.620 739.221 467.922 740.133 465.288 740.458 C 462.655 740.784 457.350 741.697 453.500 742.486 C 446.610 743.899 436.671 744.995 412.000 747.066 C 395.209 748.475 354.691 745.950 339.000 742.516 C 335.425 741.734 329.800 740.801 326.501 740.444 C 323.202 740.086 319.286 739.165 317.801 738.397 C 316.315 737.629 313.999 737.000 312.655 737.000 C 309.007 737.000 285.200 729.959 278.390 726.866 C 276.130 725.840 273.430 724.986 272.390 724.968 C 271.351 724.951 269.626 724.276 268.559 723.468 C 267.491 722.661 266.001 722.000 265.247 722.000 C 264.493 722.000 261.542 720.932 258.688 719.627 C 255.835 718.322 252.825 716.974 252.000 716.633 C 251.175 716.292 249.825 715.626 249.000 715.153 C 247.406 714.239 242.138 711.759 238.000 709.975 C 236.625 709.382 233.700 707.837 231.500 706.540 C 229.300 705.244 224.650 702.681 221.167 700.845 C 217.684 699.008 214.367 696.942 213.795 696.253 C 213.223 695.564 212.365 695.000 211.888 695.000 C 211.411 695.000 208.429 693.201 205.261 691.001 C 202.092 688.802 198.938 687.002 198.250 687.001 C 197.563 687.001 197.000 686.626 197.000 686.168 C 197.000 685.711 194.787 683.903 192.082 682.150 C 189.377 680.397 185.889 677.881 184.332 676.560 C 182.774 675.238 177.000 670.557 171.500 666.158 C 155.988 653.752 134.799 632.455 123.090 617.500 C 119.645 613.100 116.303 609.040 115.663 608.477 C 115.023 607.914 114.050 606.723 113.500 605.829 C 112.950 604.936 111.115 602.246 109.423 599.852 C 103.034 590.814 95.431 579.409 94.190 577.000 C 89.174 567.265 88.895 567.053 80.370 566.548 C 66.528 565.727 53.712 557.189 48.446 545.281 C 44.966 537.413 44.935 523.656 48.379 515.874 C 50.708 510.612 60.949 499.036 63.336 498.966 C 63.976 498.947 66.300 498.063 68.500 497.000 C 74.118 494.286 87.882 494.286 93.500 497.000 C 95.700 498.063 98.049 498.947 98.719 498.966 C 99.390 498.985 102.601 501.671 105.856 504.935 C 114.001 513.106 117.423 521.627 116.779 532.140 C 116.327 539.535 114.817 543.834 109.531 552.773 L 107.004 557.046 109.714 561.273 C 111.205 563.598 113.116 566.720 113.962 568.210 C 118.064 575.439 122.136 581.887 122.782 582.177 C 123.177 582.355 125.624 585.664 128.221 589.531 C 130.818 593.397 134.209 597.897 135.757 599.531 C 137.305 601.164 139.281 603.625 140.148 605.000 C 146.677 615.354 183.546 650.155 199.868 661.370 C 202.966 663.498 206.429 666.085 207.564 667.120 C 208.700 668.154 210.093 669.000 210.659 669.000 C 211.226 669.000 212.505 669.900 213.500 671.000 C 214.495 672.100 215.695 673.000 216.165 673.000 C 216.636 673.000 219.153 674.473 221.760 676.273 C 224.367 678.073 227.625 680.109 229.000 680.797 C 230.375 681.485 234.650 683.827 238.500 686.000 C 246.496 690.514 246.629 690.583 250.000 691.968 C 251.375 692.533 253.175 693.376 254.000 693.841 C 257.100 695.588 264.591 698.873 267.000 699.542 C 268.375 699.924 270.175 700.808 271.000 701.507 C 271.825 702.206 273.993 703.095 275.817 703.483 C 277.642 703.871 280.342 704.818 281.817 705.588 C 283.293 706.358 285.047 706.990 285.716 706.994 C 286.385 706.997 288.410 707.642 290.216 708.426 C 297.513 711.594 307.383 714.354 321.000 717.035 C 324.025 717.631 328.577 718.764 331.116 719.553 C 333.655 720.342 340.180 721.440 345.616 721.994 C 351.052 722.547 357.975 723.563 361.000 724.250 C 368.443 725.941 425.774 725.907 431.584 724.207 C 433.830 723.550 440.263 722.541 445.878 721.965 C 451.494 721.388 457.306 720.442 458.794 719.862 C 460.282 719.281 463.750 718.451 466.500 718.017 C 473.121 716.971 484.636 714.145 489.000 712.495 C 494.119 710.559 501.981 708.018 506.065 706.980 C 508.027 706.481 510.952 705.384 512.565 704.543 C 514.179 703.701 516.106 703.010 516.846 703.006 C 517.586 703.003 519.386 702.360 520.846 701.577 C 522.306 700.795 525.750 699.171 528.500 697.970 C 538.127 693.763 553.991 685.639 562.192 680.716 C 564.223 679.497 568.498 676.955 571.692 675.066 C 574.886 673.177 577.725 671.376 578.000 671.063 C 578.275 670.750 580.525 669.146 583.000 667.499 C 587.890 664.243 603.710 652.407 605.573 650.611 C 606.206 650.000 609.372 647.250 612.607 644.500 C 624.686 634.232 649.286 608.529 656.260 598.890 C 658.007 596.475 659.676 594.275 659.968 594.000 C 661.497 592.563 679.028 566.448 680.779 563.000 C 681.477 561.625 683.796 557.350 685.932 553.500 C 693.774 539.365 703.000 519.669 703.000 517.063 C 703.000 516.063 703.645 514.710 704.433 514.055 C 705.222 513.401 706.318 510.983 706.870 508.683 C 708.216 503.070 710.903 494.951 712.211 492.545 C 713.194 490.735 713.992 487.727 716.994 474.500 C 717.618 471.750 718.760 467.250 719.531 464.500 C 720.303 461.750 721.229 456.800 721.590 453.500 C 721.952 450.200 722.882 445.025 723.659 442.000 C 726.922 429.285 727.150 358.289 723.961 348.000 C 723.364 346.075 722.269 340.450 721.526 335.500 C 720.784 330.550 719.657 324.475 719.022 322.000 C 716.729 313.070 715.825 309.403 714.508 303.705 C 713.772 300.517 712.722 297.367 712.174 296.705 C 711.627 296.042 710.863 293.700 710.477 291.500 C 710.091 289.300 709.151 286.503 708.388 285.285 C 707.624 284.067 707.000 282.316 707.000 281.395 C 707.000 280.473 706.136 277.870 705.081 275.610 C 704.025 273.349 702.912 270.706 702.606 269.735 C 702.301 268.764 700.885 267.527 699.461 266.985 C 697.898 266.391 678.896 266.000 651.590 266.000 C 609.024 266.000 606.211 266.109 604.658 267.825 C 603.139 269.504 602.986 282.609 602.753 431.075 L 602.500 592.500 568.000 592.500 L 533.500 592.500 533.000 511.500 L 532.500 430.500 484.000 430.000 L 435.500 429.500 435.000 306.994 L 434.500 184.489 429.000 177.232 C 425.975 173.240 420.125 165.560 416.000 160.166 C 411.875 154.771 407.600 149.123 406.500 147.616 C 405.400 146.109 403.095 143.280 401.378 141.330 C 397.722 137.176 395.754 137.360 390.650 142.333 C 388.862 144.075 384.932 147.750 381.917 150.500 C 369.726 161.620 349.422 180.680 346.812 183.455 L 344.033 186.410 343.766 271.742 C 343.570 334.662 343.198 357.261 342.351 357.787 C 340.881 358.700 314.506 383.164 297.919 399.000 C 294.751 402.025 285.825 410.521 278.085 417.880 L 264.012 431.261 263.756 512.184 L 263.500 593.106 230.613 593.027 C 212.525 592.984 197.338 592.709 196.863 592.415 C 196.388 592.122 196.000 558.300 196.000 517.255 L 196.000 442.629 193.826 440.314 C 192.630 439.042 190.890 438.000 189.961 438.000 C 189.031 438.000 187.126 437.100 185.727 436.000 C 184.329 434.900 182.298 434.000 181.215 434.000 C 180.131 434.000 178.709 433.354 178.053 432.564 C 177.398 431.775 175.574 430.846 174.000 430.500 C 172.426 430.154 170.626 429.254 170.000 428.500 C 169.374 427.746 167.574 426.846 166.000 426.500 C 164.426 426.154 162.602 425.225 161.947 424.436 C 161.291 423.646 160.198 423.000 159.517 423.000 C 158.107 423.000 137.558 412.708 135.411 410.926 C 134.237 409.952 134.000 402.728 134.000 367.996 L 134.000 326.237 130.750 323.842 C 128.963 322.525 124.908 320.109 121.739 318.474 C 118.571 316.838 112.496 313.626 108.239 311.337 C 103.983 309.047 97.575 305.697 94.000 303.892 C 90.425 302.087 86.905 300.023 86.179 299.305 C 85.452 298.587 84.173 298.000 83.336 298.000 C 82.500 298.000 80.671 297.100 79.273 296.000 C 77.874 294.900 76.122 294.000 75.379 294.000 C 74.636 294.000 72.868 292.247 71.450 290.104 C 69.196 286.698 68.798 284.807 68.284 275.064 C 67.636 262.780 67.399 263.682 76.039 245.500 C 78.130 241.100 80.099 236.825 80.414 236.000 C 80.729 235.175 81.419 233.825 81.947 233.000 C 82.474 232.175 85.702 226.550 89.119 220.500 C 92.535 214.450 96.083 208.375 97.002 207.000 C 97.921 205.625 101.314 200.450 104.543 195.500 C 107.771 190.550 111.107 185.768 111.956 184.873 C 112.805 183.978 114.400 181.987 115.500 180.448 C 123.207 169.669 129.545 162.523 146.500 145.498 C 159.498 132.446 169.183 123.473 174.835 119.246 C 176.119 118.286 179.494 115.663 182.335 113.417 C 189.966 107.384 197.835 102.000 199.021 102.000 C 199.594 102.000 200.315 101.342 200.624 100.538 C 200.932 99.734 202.099 98.786 203.217 98.431 C 204.334 98.077 207.780 96.134 210.874 94.115 C 219.215 88.673 220.244 88.072 223.250 86.888 C 224.763 86.292 226.000 85.467 226.000 85.054 C 226.000 84.641 227.688 83.575 229.750 82.686 C 231.813 81.796 234.175 80.635 235.000 80.105 C 235.825 79.575 238.750 78.178 241.500 77.000 C 244.250 75.822 247.175 74.439 248.000 73.927 C 248.825 73.414 250.625 72.543 252.000 71.991 C 253.375 71.438 255.694 70.314 257.154 69.493 C 258.614 68.672 260.414 67.985 261.154 67.966 C 261.894 67.947 264.300 67.063 266.500 66.000 C 268.700 64.937 271.198 64.053 272.050 64.034 C 272.902 64.015 274.095 63.505 274.701 62.899 C 275.306 62.294 278.884 60.910 282.651 59.823 C 286.418 58.737 291.603 57.242 294.173 56.501 C 296.743 55.760 299.750 54.669 300.857 54.077 C 301.963 53.484 304.007 53.000 305.399 53.000 C 306.791 53.000 310.083 52.255 312.715 51.345 C 318.236 49.436 333.746 46.598 353.500 43.881 C 374.555 40.986 415.095 40.790 435.000 43.488 "/></g>
<g fill="#FFFFFFFF" stroke="#FFFFFFFF">
<path d="M 376.000 41.968 C 355.698 42.984 322.796 47.860 312.715 51.345 C 310.083 52.255 306.791 53.000 305.399 53.000 C 304.007 53.000 301.963 53.484 300.857 54.077 C 299.750 54.669 296.743 55.760 294.173 56.501 C 291.603 57.242 286.418 58.737 282.651 59.823 C 278.884 60.910 275.306 62.294 274.701 62.899 C 274.095 63.505 272.902 64.015 272.050 64.034 C 271.198 64.053 268.700 64.937 266.500 66.000 C 264.300 67.063 261.894 67.947 261.154 67.966 C 260.414 67.985 258.614 68.672 257.154 69.493 C 255.694 70.314 253.375 71.438 252.000 71.991 C 250.625 72.543 248.825 73.414 248.000 73.927 C 247.175 74.439 244.250 75.822 241.500 77.000 C 238.750 78.178 235.825 79.575 235.000 80.105 C 234.175 80.635 231.813 81.796 229.750 82.686 C 227.688 83.575 226.000 84.641 226.000 85.054 C 226.000 85.467 224.763 86.292 223.250 86.888 C 220.244 88.072 219.215 88.673 210.874 94.115 C 207.780 96.134 204.334 98.077 203.217 98.431 C 202.099 98.786 200.932 99.734 200.624 100.538 C 200.315 101.342 199.594 102.000 199.021 102.000 C 197.835 102.000 189.966 107.384 182.335 113.417 C 179.494 115.663 176.119 118.286 174.835 119.246 C 169.183 123.473 159.498 132.446 146.500 145.498 C 129.545 162.523 123.207 169.669 115.500 180.448 C 114.400 181.987 112.805 183.978 111.956 184.873 C 111.107 185.768 107.771 190.550 104.543 195.500 C 101.314 200.450 97.921 205.625 97.002 207.000 C 96.083 208.375 92.535 214.450 89.119 220.500 C 85.702 226.550 82.474 232.175 81.947 233.000 C 81.419 233.825 80.729 235.175 80.414 236.000 C 80.099 236.825 78.130 241.100 76.039 245.500 C 67.399 263.682 67.636 262.780 68.284 275.064 C 68.798 284.807 69.196 286.698 71.450 290.104 C 72.868 292.247 74.636 294.000 75.379 294.000 C 76.122 294.000 77.874 294.900 79.273 296.000 C 80.671 297.100 82.500 298.000 83.336 298.000 C 84.173 298.000 85.452 298.587 86.179 299.305 C 86.905 300.023 90.425 302.087 94.000 303.892 C 97.575 305.697 103.983 309.047 108.239 311.337 C 112.496 313.626 118.571 316.838 121.739 318.474 C 124.908 320.109 128.963 322.525 130.750 323.842 L 134.000 326.237 134.000 367.996 C 134.000 402.728 134.237 409.952 135.411 410.926 C 137.558 412.708 158.107 423.000 159.517 423.000 C 160.198 423.000 161.291 423.646 161.947 424.436 C 162.602 425.225 164.426 426.154 166.000 426.500 C 167.574 426.846 169.374 427.746 170.000 428.500 C 170.626 429.254 172.426 430.154 174.000 430.500 C 175.574 430.846 177.398 431.775 178.053 432.564 C 178.709 433.354 180.131 434.000 181.215 434.000 C 182.298 434.000 184.329 434.900 185.727 436.000 C 187.126 437.100 189.031 438.000 189.961 438.000 C 190.890 438.000 192.630 439.042 193.826 440.314 L 196.000 442.629 196.000 517.255 C 196.000 558.300 196.388 592.122 196.863 592.415 C 197.338 592.709 212.525 592.984 230.613 593.027 L 263.500 593.106 263.756 512.184 L 264.012 431.261 278.085 417.880 C 285.825 410.521 294.751 402.025 297.919 399.000 C 314.506 383.164 340.881 358.700 342.351 357.787 C 343.198 357.261 343.570 334.662 343.766 271.742 L 344.033 186.410 346.812 183.455 C 349.422 180.680 369.726 161.620 381.917 150.500 C 384.932 147.750 388.862 144.075 390.650 142.333 C 395.754 137.360 397.722 137.176 401.378 141.330 C 403.095 143.280 405.400 146.109 406.500 147.616 C 407.600 149.123 411.875 154.771 416.000 160.166 C 420.125 165.560 425.975 173.240 429.000 177.232 L 434.500 184.489 435.000 306.994 L 435.500 429.500 484.000 430.000 L 532.500 430.500 533.000 511.500 L 533.500 592.500 568.000 592.500 L 602.500 592.500 602.753 431.075 C 602.986 282.609 603.139 269.504 604.658 267.825 C 606.211 266.109 609.024 266.000 651.590 266.000 C 678.896 266.000 697.898 266.391 699.461 266.985 C 700.885 267.527 702.301 268.764 702.606 269.735 C 702.912 270.706 704.025 273.349 705.081 275.610 C 706.136 277.870 707.000 280.473 707.000 281.395 C 707.000 282.316 707.624 284.067 708.388 285.285 C 709.151 286.503 710.091 289.300 710.477 291.500 C 710.863 293.700 711.627 296.042 712.174 296.705 C 712.722 297.367 713.772 300.517 714.508 303.705 C 715.825 309.403 716.729 313.070 719.022 322.000 C 719.657 324.475 720.784 330.550 721.526 335.500 C 722.269 340.450 723.364 346.075 723.961 348.000 C 727.150 358.289 726.922 429.285 723.659 442.000 C 722.882 445.025 721.952 450.200 721.590 453.500 C 721.229 456.800 720.303 461.750 719.531 464.500 C 718.760 467.250 717.618 471.750 716.994 474.500 C 713.992 487.727 713.194 490.735 712.211 492.545 C 710.903 494.951 708.216 503.070 706.870 508.683 C 706.318 510.983 705.222 513.401 704.433 514.055 C 703.645 514.710 703.000 516.063 703.000 517.063 C 703.000 519.669 693.774 539.365 685.932 553.500 C 683.796 557.350 681.477 561.625 680.779 563.000 C 679.028 566.448 661.497 592.563 659.968 594.000 C 659.676 594.275 658.007 596.475 656.260 598.890 C 649.286 608.529 624.686 634.232 612.607 644.500 C 609.372 647.250 606.206 650.000 605.573 650.611 C 603.710 652.407 587.890 664.243 583.000 667.499 C 580.525 669.146 578.275 670.750 578.000 671.063 C 577.725 671.376 574.886 673.177 571.692 675.066 C 568.498 676.955 564.223 679.497 562.192 680.716 C 553.991 685.639 538.127 693.763 528.500 697.970 C 525.750 699.171 522.306 700.795 520.846 701.577 C 519.386 702.360 517.586 703.003 516.846 703.006 C 516.106 703.010 514.179 703.701 512.565 704.543 C 510.952 705.384 508.027 706.481 506.065 706.980 C 501.981 708.018 494.119 710.559 489.000 712.495 C 484.636 714.145 473.121 716.971 466.500 718.017 C 463.750 718.451 460.282 719.281 458.794 719.862 C 457.306 720.442 451.494 721.388 445.878 721.965 C 440.263 722.541 433.830 723.550 431.584 724.207 C 425.774 725.907 368.443 725.941 361.000 724.250 C 357.975 723.563 351.052 722.547 345.616 721.994 C 340.180 721.440 333.655 720.342 331.116 719.553 C 328.577 718.764 324.025 717.631 321.000 717.035 C 307.383 714.354 297.513 711.594 290.216 708.426 C 288.410 707.642 286.385 706.997 285.716 706.994 C 285.047 706.990 283.293 706.358 281.817 705.588 C 280.342 704.818 277.642 703.871 275.817 703.483 C 273.993 703.095 271.825 702.206 271.000 701.507 C 270.175 700.808 268.375 699.924 267.000 699.542 C 264.591 698.873 257.100 695.588 254.000 693.841 C 253.175 693.376 251.375 692.533 250.000 691.968 C 246.629 690.583 246.496 690.514 238.500 686.000 C 234.650 683.827 230.375 681.485 229.000 680.797 C 227.625 680.109 224.367 678.073 221.760 676.273 C 219.153 674.473 216.636 673.000 216.165 673.000 C 215.695 673.000 214.495 672.100 213.500 671.000 C 212.505 669.900 211.226 669.000 210.659 669.000 C 210.093 669.000 208.700 668.154 207.564 667.120 C 206.429 666.085 202.966 663.498 199.868 661.370 C 183.546 650.155 146.677 615.354 140.148 605.000 C 139.281 603.625 137.305 601.164 135.757 599.531 C 134.209 597.897 130.818 593.397 128.221 589.531 C 125.624 585.664 123.177 582.355 122.782 582.177 C 122.136 581.887 118.064 575.439 113.962 568.210 C 113.116 566.720 111.205 563.598 109.714 561.273 L 107.004 557.046 109.531 552.773 C 114.817 543.834 116.327 539.535 116.779 532.140 C 117.423 521.627 114.001 513.106 105.856 504.935 C 102.601 501.671 99.390 498.985 98.719 498.966 C 98.049 498.947 95.700 498.063 93.500 497.000 C 87.882 494.286 74.118 494.286 68.500 497.000 C 66.300 498.063 63.976 498.947 63.336 498.966 C 60.949 499.036 50.708 510.612 48.379 515.874 C 44.935 523.656 44.966 537.413 48.446 545.281 C 53.712 557.189 66.528 565.727 80.370 566.548 C 88.895 567.053 89.174 567.265 94.190 577.000 C 95.431 579.409 103.034 590.814 109.423 599.852 C 111.115 602.246 112.950 604.936 113.500 605.829 C 114.050 606.723 115.023 607.914 115.663 608.477 C 116.303 609.040 119.645 613.100 123.090 617.500 C 134.799 632.455 155.988 653.752 171.500 666.158 C 177.000 670.557 182.774 675.238 184.332 676.560 C 185.889 677.881 189.377 680.397 192.082 682.150 C 194.787 683.903 197.000 685.711 197.000 686.168 C 197.000 686.626 197.563 687.001 198.250 687.001 C 198.938 687.002 202.092 688.802 205.261 691.001 C 208.429 693.201 211.411 695.000 211.888 695.000 C 212.365 695.000 213.223 695.564 213.795 696.253 C 214.367 696.942 217.684 699.008 221.167 700.845 C 224.650 702.681 229.300 705.244 231.500 706.540 C 233.700 707.837 236.625 709.382 238.000 709.975 C 242.138 711.759 247.406 714.239 249.000 715.153 C 249.825 715.626 251.175 716.292 252.000 716.633 C 252.825 716.974 255.835 718.322 258.688 719.627 C 261.542 720.932 264.493 722.000 265.247 722.000 C 266.001 722.000 267.491 722.661 268.559 723.468 C 269.626 724.276 271.351 724.951 272.390 724.968 C 273.430 724.986 276.130 725.840 278.390 726.866 C 285.200 729.959 309.007 737.000 312.655 737.000 C 313.999 737.000 316.315 737.629 317.801 738.397 C 319.286 739.165 323.202 740.086 326.501 740.444 C 329.800 740.801 335.425 741.734 339.000 742.516 C 354.691 745.950 395.209 748.475 412.000 747.066 C 436.671 744.995 446.610 743.899 453.500 742.486 C 457.350 741.697 462.655 740.784 465.288 740.458 C 467.922 740.133 471.620 739.221 473.506 738.433 C 475.392 737.645 478.086 737.000 479.493 737.000 C 480.899 737.000 484.611 736.100 487.740 735.000 C 490.870 733.900 494.346 732.985 495.465 732.966 C 496.584 732.947 499.300 732.063 501.500 731.000 C 503.700 729.937 506.412 729.053 507.527 729.034 C 508.643 729.015 510.443 728.396 511.527 727.657 C 512.612 726.919 515.300 725.818 517.500 725.210 C 524.200 723.361 532.076 720.324 533.270 719.130 C 533.892 718.508 535.008 718.000 535.752 718.000 C 536.495 718.000 538.768 717.134 540.802 716.076 C 542.836 715.018 548.775 712.029 554.000 709.435 C 559.225 706.841 565.300 703.667 567.500 702.383 C 569.700 701.098 572.488 699.607 573.696 699.069 C 574.903 698.531 578.161 696.495 580.935 694.545 C 583.710 692.595 586.195 691.000 586.458 691.000 C 586.870 691.000 597.593 683.934 600.499 681.747 C 604.449 678.777 623.599 663.578 624.000 663.097 C 624.275 662.767 626.300 660.975 628.500 659.114 C 638.354 650.783 651.590 637.342 663.000 624.081 C 666.025 620.565 669.288 616.984 670.250 616.122 C 671.213 615.261 672.000 614.131 672.000 613.612 C 672.000 613.093 672.685 611.955 673.523 611.084 C 677.035 607.431 690.967 587.584 695.500 579.777 C 696.050 578.829 698.638 574.452 701.250 570.050 C 703.863 565.648 706.000 561.618 706.000 561.094 C 706.000 560.571 706.563 559.533 707.250 558.787 C 709.239 556.629 718.000 538.309 718.000 536.307 C 718.000 535.723 718.646 534.709 719.436 534.053 C 720.225 533.398 721.177 531.430 721.551 529.681 C 721.925 527.931 722.792 525.375 723.477 524.000 C 724.162 522.625 725.193 520.150 725.767 518.500 C 728.085 511.842 729.390 508.281 731.152 503.815 C 732.168 501.238 733.000 498.178 733.000 497.015 C 733.000 495.852 733.617 493.686 734.370 492.200 C 735.124 490.715 736.054 487.345 736.437 484.712 C 736.820 482.078 737.729 478.478 738.456 476.712 C 739.183 474.945 740.089 471.025 740.469 468.000 C 740.849 464.975 741.767 460.250 742.508 457.500 C 743.730 452.971 744.651 446.509 747.070 425.500 C 748.131 416.293 748.108 371.435 747.039 362.500 C 744.387 340.350 743.802 336.130 742.878 332.500 C 742.317 330.300 741.308 325.118 740.634 320.985 C 739.960 316.852 739.024 312.848 738.555 312.089 C 738.086 311.330 737.124 307.961 736.419 304.604 C 734.400 294.995 732.928 289.836 730.890 285.223 C 729.850 282.871 728.985 280.171 728.966 279.223 C 728.947 278.275 728.063 275.700 727.000 273.500 C 725.937 271.300 725.053 268.799 725.034 267.941 C 725.015 267.084 724.339 265.509 723.532 264.441 C 722.724 263.374 722.049 261.940 722.032 261.255 C 722.014 260.570 720.559 256.861 718.797 253.012 C 716.030 246.967 715.180 245.941 712.547 245.472 C 710.871 245.173 680.925 245.058 646.000 245.215 L 582.500 245.500 582.247 407.401 C 582.063 525.044 581.688 569.671 580.875 570.651 C 579.285 572.567 557.718 572.570 556.128 570.655 C 555.332 569.695 554.939 546.285 554.756 488.905 L 554.500 408.500 506.000 408.000 L 457.500 407.500 457.246 293.148 L 456.992 178.797 454.794 175.648 C 453.585 173.917 449.312 168.348 445.298 163.273 C 441.284 158.199 438.000 153.686 438.000 153.246 C 438.000 152.805 437.213 151.721 436.250 150.836 C 435.288 149.951 433.703 148.164 432.729 146.864 C 430.073 143.317 415.300 123.836 413.271 121.202 C 412.297 119.939 410.475 117.689 409.222 116.202 C 406.477 112.947 405.989 112.286 403.719 108.750 C 401.397 105.133 398.783 105.277 394.678 109.250 C 391.618 112.211 374.808 127.799 367.500 134.452 C 361.540 139.878 337.476 162.670 329.826 170.136 L 322.000 177.773 322.000 262.233 L 322.000 346.694 307.369 360.597 C 299.322 368.244 290.138 376.975 286.960 380.000 C 281.036 385.639 259.872 405.482 254.500 410.434 C 252.850 411.955 249.475 415.067 247.000 417.350 L 242.500 421.500 242.282 495.000 C 242.162 535.425 241.866 569.288 241.625 570.250 C 241.244 571.773 239.870 572.000 231.028 572.000 C 225.440 572.000 219.998 571.534 218.934 570.965 C 217.050 569.956 217.000 568.104 217.000 499.153 L 217.000 428.376 214.100 426.232 C 212.505 425.053 210.049 423.799 208.641 423.446 C 207.234 423.093 205.582 422.202 204.972 421.466 C 204.361 420.730 202.574 419.846 201.000 419.500 C 199.426 419.154 197.602 418.225 196.947 417.436 C 196.291 416.646 195.112 416.000 194.326 416.000 C 193.101 416.000 188.565 413.926 183.000 410.822 C 182.175 410.362 180.375 409.479 179.000 408.860 C 169.545 404.606 157.770 398.404 156.516 397.018 C 155.250 395.619 154.982 388.983 154.761 353.500 L 154.500 311.634 150.500 309.365 C 148.300 308.117 145.825 306.816 145.000 306.476 C 144.175 306.135 142.825 305.448 142.000 304.950 C 141.175 304.452 137.350 302.431 133.500 300.460 C 124.791 296.001 111.405 288.840 103.500 284.411 C 100.200 282.562 96.087 280.406 94.359 279.621 C 88.599 277.003 87.915 269.960 92.552 261.000 C 95.200 255.881 98.000 249.333 98.000 248.256 C 98.000 247.644 98.587 246.548 99.305 245.821 C 100.023 245.095 102.068 241.575 103.851 238.000 C 107.671 230.337 108.268 229.300 113.222 221.719 C 115.300 218.539 117.000 215.744 117.000 215.507 C 117.000 214.593 128.079 198.869 134.003 191.375 C 150.132 170.973 174.666 146.127 190.527 134.131 C 192.712 132.478 195.190 130.535 196.034 129.813 C 196.877 129.091 199.577 127.151 202.034 125.503 C 204.490 123.854 206.725 122.264 207.000 121.968 C 207.465 121.469 217.464 114.761 221.114 112.500 C 234.209 104.389 262.038 89.995 264.610 90.003 C 265.398 90.005 268.333 88.690 277.000 84.453 C 278.375 83.781 281.060 82.897 282.967 82.488 C 284.874 82.080 287.124 81.360 287.967 80.888 C 290.302 79.581 301.995 75.805 306.500 74.903 C 310.411 74.120 318.478 72.133 328.500 69.482 C 331.250 68.755 335.975 67.866 339.000 67.508 C 342.025 67.150 348.325 66.127 353.000 65.237 C 365.675 62.821 428.245 62.798 439.000 65.205 C 443.125 66.128 449.425 67.184 453.000 67.552 C 456.575 67.920 461.017 68.846 462.872 69.610 C 464.727 70.375 467.551 71.000 469.147 71.000 C 470.744 71.000 474.611 71.900 477.740 73.000 C 480.870 74.100 484.346 75.015 485.465 75.034 C 486.584 75.053 489.300 75.937 491.500 77.000 C 493.700 78.063 496.417 78.947 497.538 78.966 C 498.658 78.985 503.366 80.575 508.000 82.500 C 512.634 84.425 516.862 86.000 517.397 86.000 C 517.931 86.000 520.423 86.928 522.934 88.063 C 531.163 91.780 536.474 94.281 538.000 95.155 C 538.825 95.628 540.625 96.509 542.000 97.114 C 543.375 97.719 545.175 98.603 546.000 99.079 C 546.825 99.554 549.642 101.065 552.261 102.436 C 559.705 106.333 566.375 110.311 567.821 111.716 C 568.548 112.422 569.543 113.000 570.033 113.000 C 571.015 113.000 586.327 123.192 589.500 125.958 C 590.600 126.917 592.274 127.975 593.220 128.308 C 595.511 129.115 596.527 133.547 595.127 136.621 C 593.553 140.076 593.719 152.271 595.394 156.216 C 599.691 166.335 600.166 167.078 605.638 172.256 C 612.553 178.799 618.601 181.000 629.661 181.000 C 637.857 181.000 639.885 180.640 644.812 178.309 C 651.296 175.242 658.647 168.189 661.984 161.833 C 663.775 158.419 664.360 155.330 664.741 147.272 C 665.169 138.238 664.979 136.572 663.113 132.992 C 661.951 130.762 661.000 128.293 661.000 127.504 C 661.000 126.716 660.100 125.589 659.000 125.000 C 657.900 124.411 657.000 123.474 657.000 122.917 C 657.000 120.584 649.940 115.966 639.716 111.612 C 634.985 109.597 624.297 109.506 620.404 111.448 C 618.807 112.245 615.700 113.179 613.500 113.525 C 609.853 114.097 608.971 113.750 603.500 109.581 C 600.200 107.067 596.954 104.556 596.288 104.001 C 595.621 103.446 593.933 102.471 592.538 101.835 C 591.142 101.199 590.000 100.373 590.000 100.000 C 590.000 99.627 588.845 98.795 587.433 98.151 C 586.020 97.508 581.840 95.007 578.143 92.593 C 574.446 90.180 568.514 86.700 564.961 84.860 C 561.407 83.020 557.905 80.949 557.179 80.257 C 556.452 79.566 555.044 79.000 554.051 79.000 C 553.058 79.000 551.685 78.325 551.000 77.500 C 550.315 76.675 549.332 76.000 548.816 76.000 C 548.299 76.000 545.317 74.836 542.188 73.413 C 539.060 71.990 535.150 70.251 533.500 69.548 C 531.850 68.845 528.925 67.555 527.000 66.682 C 525.075 65.809 521.588 64.606 519.250 64.009 C 516.913 63.412 515.000 62.566 515.000 62.130 C 515.000 61.694 513.088 60.859 510.750 60.274 C 508.413 59.689 505.150 58.736 503.500 58.155 C 496.552 55.709 487.196 53.111 483.000 52.463 C 480.525 52.081 477.688 51.341 476.696 50.820 C 474.045 49.427 457.986 46.603 435.000 43.488 C 422.289 41.765 394.403 41.047 376.000 41.968 M 88.131 520.286 C 91.162 522.838 94.000 527.982 94.000 530.926 C 94.000 536.222 86.734 543.000 81.057 543.000 C 77.493 543.000 72.191 540.109 71.430 537.750 C 71.119 536.788 70.466 536.000 69.978 536.000 C 69.490 536.000 68.804 534.473 68.454 532.607 C 67.694 528.557 70.898 522.198 74.935 519.743 C 78.800 517.392 84.996 517.647 88.131 520.286 M 634.128 134.411 C 638.993 136.447 642.000 140.986 642.000 146.293 C 642.000 149.973 641.435 151.232 638.438 154.229 C 633.458 159.208 627.703 159.845 622.420 156.000 C 620.063 154.285 617.000 148.566 617.000 145.880 C 617.000 141.807 620.486 136.716 624.500 134.925 C 629.483 132.703 629.981 132.676 634.128 134.411 "/></g>
<g fill="#123753FF" stroke="#123753FF">
<path d="M 74.935 519.743 C 70.898 522.198 67.694 528.557 68.454 532.607 C 68.804 534.473 69.490 536.000 69.978 536.000 C 70.466 536.000 71.119 536.788 71.430 537.750 C 72.191 540.109 77.493 543.000 81.057 543.000 C 86.734 543.000 94.000 536.222 94.000 530.926 C 94.000 527.982 91.162 522.838 88.131 520.286 C 84.996 517.647 78.800 517.392 74.935 519.743 "/></g>
<g fill="#123753FF" stroke="#123753FF">
<path d="M 624.500 134.925 C 620.486 136.716 617.000 141.807 617.000 145.880 C 617.000 148.566 620.063 154.285 622.420 156.000 C 627.703 159.845 633.458 159.208 638.438 154.229 C 641.435 151.232 642.000 149.973 642.000 146.293 C 642.000 140.986 638.993 136.447 634.128 134.411 C 629.981 132.676 629.483 132.703 624.500 134.925 "/></g>
<g fill="#000000FF" stroke="#000000FF">
<path d="M 735.000 734.973 L 726.500 743.540 735.000 734.973 L 743.500 726.407 735.000 734.973 "/></g>
<g fill="#000000FF" stroke="#000000FF">
<path d="M 53.000 735.000 L 62.000 744.000 53.000 735.000 L 44.000 726.000 53.000 735.000 "/></g>
<g fill="#000000FF" stroke="#000000FF">
<path d="M 735.000 53.000 L 744.000 62.000 735.000 53.000 L 726.000 44.000 735.000 53.000 "/></g>
<g fill="#000000FF" stroke="#000000FF">
<path d="M 53.000 52.973 L 44.500 61.540 53.000 52.973 L 61.500 44.407 53.000 52.973 "/></g>
<g fill="#000000FF" stroke="#000000FF">
<path d="M 720.583 747.981 L 716.666 751.500 720.583 747.981 L 724.500 744.462 720.583 747.981 "/></g>
<g fill="#000000FF" stroke="#000000FF">
<path d="M 64.726 746.062 C 65.951 747.403 68.083 749.175 69.463 750.000 C 70.844 750.825 69.842 749.728 67.237 747.562 C 64.632 745.396 63.502 744.721 64.726 746.062 "/></g>
<g fill="#000000FF" stroke="#000000FF">
<path d="M 720.000 39.788 C 722.475 41.988 724.405 43.437 724.288 43.008 C 724.171 42.579 722.146 40.779 719.788 39.008 L 715.500 35.789 720.000 39.788 "/></g>
<g fill="#000000FF" stroke="#000000FF">
<path d="M 67.417 40.019 L 63.500 43.538 67.417 40.019 L 71.334 36.500 67.417 40.019 "/></g>
<g fill="#000000FF" stroke="#000000FF">
<path d="M 759.411 704.079 C 757.705 706.871 757.661 707.132 759.169 705.500 C 760.185 704.400 761.126 702.860 761.258 702.079 C 761.391 701.297 760.560 702.197 759.411 704.079 "/></g>
<g fill="#000000FF" stroke="#000000FF">
<path d="M 26.872 702.500 C 27.412 703.600 28.586 705.400 29.482 706.500 L 31.110 708.500 30.128 706.500 C 29.588 705.400 28.414 703.600 27.518 702.500 L 25.890 700.500 26.872 702.500 "/></g>
<g fill="#000000FF" stroke="#000000FF">
<path d="M 757.872 81.500 C 758.412 82.600 759.586 84.400 760.482 85.500 L 762.110 87.500 761.128 85.500 C 760.588 84.400 759.414 82.600 758.518 81.500 L 756.890 79.500 757.872 81.500 "/></g>
<g fill="#000000FF" stroke="#000000FF">
<path d="M 28.411 83.079 C 26.705 85.871 26.661 86.132 28.169 84.500 C 29.185 83.400 30.126 81.860 30.258 81.079 C 30.391 80.297 29.560 81.197 28.411 83.079 "/></g>
<g fill="#000000FF" stroke="#000000FF">
<path d="M 696.581 763.859 C 693.690 765.484 693.688 765.491 696.371 764.630 C 697.861 764.152 699.174 763.413 699.290 762.989 C 699.405 762.565 698.186 762.957 696.581 763.859 "/></g>
<g fill="#000000FF" stroke="#000000FF">
<path d="M 88.382 762.810 C 88.714 763.346 90.193 764.171 91.670 764.642 C 93.905 765.356 93.804 765.193 91.067 763.667 C 89.259 762.659 88.051 762.274 88.382 762.810 "/></g>
<g fill="#000000FF" stroke="#000000FF">
<path d="M 73.706 753.088 C 74.369 753.919 75.866 755.026 77.032 755.549 C 78.198 756.072 77.655 755.393 75.826 754.039 C 73.997 752.686 73.043 752.258 73.706 753.088 "/></g>
<g fill="#000000FF" stroke="#000000FF">
<path d="M 754.500 712.000 L 752.680 714.791 754.500 712.000 L 756.320 709.209 754.500 712.000 "/></g>
<g fill="#000000FF" stroke="#000000FF">
<path d="M 33.039 711.826 C 34.393 713.655 35.072 714.198 34.549 713.032 C 34.026 711.866 32.919 710.369 32.088 709.706 C 31.258 709.043 31.686 709.997 33.039 711.826 "/></g>
<g fill="#000000FF" stroke="#000000FF">
<path d="M 764.053 696.750 L 762.856 699.500 764.053 696.750 L 765.250 694.000 764.053 696.750 "/></g>
<g fill="#000000FF" stroke="#000000FF">
<path d="M 15.071 679.500 C 15.071 680.050 15.714 681.625 16.500 683.000 C 17.286 684.375 17.929 685.050 17.929 684.500 C 17.929 683.950 17.286 682.375 16.500 681.000 C 15.714 679.625 15.071 678.950 15.071 679.500 "/></g>
<g fill="#000000FF" stroke="#000000FF">
<path d="M 763.667 91.067 C 765.193 93.804 765.356 93.905 764.642 91.670 C 764.171 90.193 763.346 88.714 762.810 88.382 C 762.274 88.051 762.659 89.259 763.667 91.067 "/></g>
<g fill="#000000FF" stroke="#000000FF">
<path d="M 754.039 75.826 C 755.393 77.655 756.072 78.198 755.549 77.032 C 755.026 75.866 753.919 74.369 753.088 73.706 C 752.258 73.043 752.686 73.997 754.039 75.826 "/></g>
<g fill="#000000FF" stroke="#000000FF">
<path d="M 33.500 76.000 L 31.680 78.791 33.500 76.000 L 35.320 73.209 33.500 76.000 "/></g>
<g fill="#000000FF" stroke="#000000FF">
<path d="M 76.000 33.500 L 73.628 35.574 76.000 33.500 L 78.372 31.426 76.000 33.500 "/></g>
<g fill="#000000FF" stroke="#000000FF">
<path d="M 746.500 722.410 L 744.500 724.567 746.500 722.410 L 748.500 720.253 746.500 722.410 "/></g>
<g fill="#000000FF" stroke="#000000FF">
<path d="M 41.000 722.000 L 43.500 724.500 41.000 722.000 L 38.500 719.500 41.000 722.000 "/></g>
<g fill="#000000FF" stroke="#000000FF">
<path d="M 746.000 65.000 L 748.500 67.500 746.000 65.000 L 743.500 62.500 746.000 65.000 "/></g>
<g fill="#000000FF" stroke="#000000FF">
<path d="M 41.500 65.410 L 39.500 67.567 41.500 65.410 L 43.500 63.253 41.500 65.410 "/></g>
<g fill="#000000FF" stroke="#000000FF">
<path d="M 675.000 774.000 C 674.175 774.533 673.950 774.969 674.500 774.969 C 675.050 774.969 676.175 774.533 677.000 774.000 C 677.825 773.467 678.050 773.031 677.500 773.031 C 676.950 773.031 675.825 773.467 675.000 774.000 "/></g>
<g fill="#000000FF" stroke="#000000FF">
<path d="M 111.000 774.000 C 111.825 774.533 112.950 774.969 113.500 774.969 C 114.050 774.969 113.825 774.533 113.000 774.000 C 112.175 773.467 111.050 773.031 110.500 773.031 C 109.950 773.031 110.175 773.467 111.000 774.000 "/></g>
<g fill="#000000FF" stroke="#000000FF">
<path d="M 680.000 772.000 C 679.175 772.533 678.950 772.969 679.500 772.969 C 680.050 772.969 681.175 772.533 682.000 772.000 C 682.825 771.467 683.050 771.031 682.500 771.031 C 681.950 771.031 680.825 771.467 680.000 772.000 "/></g>
<g fill="#000000FF" stroke="#000000FF">
<path d="M 106.000 772.000 C 106.825 772.533 107.950 772.969 108.500 772.969 C 109.050 772.969 108.825 772.533 108.000 772.000 C 107.175 771.467 106.050 771.031 105.500 771.031 C 104.950 771.031 105.175 771.467 106.000 772.000 "/></g>
<g fill="#000000FF" stroke="#000000FF">
<path d="M 702.828 760.649 L 701.500 761.798 702.828 760.649 L 704.156 759.500 702.828 760.649 "/></g>
<g fill="#000000FF" stroke="#000000FF">
<path d="M 83.417 759.865 C 83.778 760.450 84.845 761.058 85.787 761.215 C 86.868 761.395 86.626 761.002 85.129 760.150 C 83.825 759.408 83.055 759.279 83.417 759.865 "/></g>
<g fill="#000000FF" stroke="#000000FF">
<path d="M 23.150 696.129 C 24.002 697.626 24.395 697.868 24.215 696.787 C 24.058 695.845 23.450 694.778 22.865 694.417 C 22.279 694.055 22.408 694.825 23.150 696.129 "/></g>
<g fill="#000000FF" stroke="#000000FF">
<path d="M 772.000 680.000 C 771.835 680.550 771.700 681.450 771.700 682.000 C 771.700 682.667 771.800 682.667 772.000 682.000 C 772.165 681.450 772.300 680.550 772.300 680.000 C 772.300 679.333 772.200 679.333 772.000 680.000 "/></g>
<g fill="#000000FF" stroke="#000000FF">
<path d="M 13.031 674.500 C 13.031 675.050 13.467 676.175 14.000 677.000 C 14.533 677.825 14.969 678.050 14.969 677.500 C 14.969 676.950 14.533 675.825 14.000 675.000 C 13.467 674.175 13.031 673.950 13.031 674.500 "/></g>
<g fill="#000000FF" stroke="#000000FF">
<path d="M 773.031 110.500 C 773.031 111.050 773.467 112.175 774.000 113.000 C 774.533 113.825 774.969 114.050 774.969 113.500 C 774.969 112.950 774.533 111.825 774.000 111.000 C 773.467 110.175 773.031 109.950 773.031 110.500 "/></g>
<g fill="#000000FF" stroke="#000000FF">
<path d="M 14.000 111.000 C 13.835 111.550 13.700 112.450 13.700 113.000 C 13.700 113.667 13.800 113.667 14.000 113.000 C 14.165 112.450 14.300 111.550 14.300 111.000 C 14.300 110.333 14.200 110.333 14.000 111.000 "/></g>
<g fill="#000000FF" stroke="#000000FF">
<path d="M 771.031 105.500 C 771.031 106.050 771.467 107.175 772.000 108.000 C 772.533 108.825 772.969 109.050 772.969 108.500 C 772.969 107.950 772.533 106.825 772.000 106.000 C 771.467 105.175 771.031 104.950 771.031 105.500 "/></g>
<g fill="#000000FF" stroke="#000000FF">
<path d="M 16.000 106.000 C 15.835 106.550 15.700 107.450 15.700 108.000 C 15.700 108.667 15.800 108.667 16.000 108.000 C 16.165 107.450 16.300 106.550 16.300 106.000 C 16.300 105.333 16.200 105.333 16.000 106.000 "/></g>
<g fill="#000000FF" stroke="#000000FF">
<path d="M 23.250 92.422 L 22.500 94.343 23.250 92.422 L 24.000 90.500 23.250 92.422 "/></g>
<g fill="#000000FF" stroke="#000000FF">
<path d="M 701.417 26.865 C 701.778 27.450 702.845 28.058 703.787 28.215 C 704.868 28.395 704.626 28.002 703.129 27.150 C 701.825 26.408 701.055 26.279 701.417 26.865 "/></g>
<g fill="#000000FF" stroke="#000000FF">
<path d="M 84.828 27.649 L 83.500 28.798 84.828 27.649 L 86.156 26.500 84.828 27.649 "/></g>
<g fill="#000000FF" stroke="#000000FF">
<path d="M 694.417 22.865 C 694.778 23.450 695.845 24.058 696.787 24.215 C 697.868 24.395 697.626 24.002 696.129 23.150 C 694.825 22.408 694.055 22.279 694.417 22.865 "/></g>
<g fill="#000000FF" stroke="#000000FF">
<path d="M 91.828 23.649 L 90.500 24.798 91.828 23.649 L 93.156 22.500 91.828 23.649 "/></g>
<g fill="#000000FF" stroke="#000000FF">
<path d="M 680.000 16.000 C 680.825 16.533 681.950 16.969 682.500 16.969 C 683.050 16.969 682.825 16.533 682.000 16.000 C 681.175 15.467 680.050 15.031 679.500 15.031 C 678.950 15.031 679.175 15.467 680.000 16.000 "/></g>
<g fill="#000000FF" stroke="#000000FF">
<path d="M 106.000 16.000 C 105.175 16.533 104.950 16.969 105.500 16.969 C 106.050 16.969 107.175 16.533 108.000 16.000 C 108.825 15.467 109.050 15.031 108.500 15.031 C 107.950 15.031 106.825 15.467 106.000 16.000 "/></g>
<g fill="#000000FF" stroke="#000000FF">
<path d="M 675.000 14.000 C 675.825 14.533 676.950 14.969 677.500 14.969 C 678.050 14.969 677.825 14.533 677.000 14.000 C 676.175 13.467 675.050 13.031 674.500 13.031 C 673.950 13.031 674.175 13.467 675.000 14.000 "/></g>
<g fill="#000000FF" stroke="#000000FF">
<path d="M 111.000 14.000 C 110.175 14.533 109.950 14.969 110.500 14.969 C 111.050 14.969 112.175 14.533 113.000 14.000 C 113.825 13.467 114.050 13.031 113.500 13.031 C 112.950 13.031 111.825 13.467 111.000 14.000 "/></g>
<g fill="#000000FF" stroke="#000000FF">
<path d="M 713.378 753.378 L 712.500 754.256 713.378 753.378 L 714.256 752.500 713.378 753.378 "/></g>
<g fill="#000000FF" stroke="#000000FF">
<path d="M 750.378 717.378 L 749.500 718.256 750.378 717.378 L 751.256 716.500 750.378 717.378 "/></g>
<g fill="#000000FF" stroke="#000000FF">
<path d="M 37.500 717.500 L 39.000 719.000 37.500 717.500 L 36.000 716.000 37.500 717.500 "/></g>
<g fill="#000000FF" stroke="#000000FF">
<path d="M 750.500 70.500 L 752.000 72.000 750.500 70.500 L 749.000 69.000 750.500 70.500 "/></g>
<g fill="#000000FF" stroke="#000000FF">
<path d="M 37.378 70.378 L 36.500 71.256 37.378 70.378 L 38.256 69.500 37.378 70.378 "/></g>
<g fill="#000000FF" stroke="#000000FF">
<path d="M 713.500 34.500 L 715.000 36.000 713.500 34.500 L 712.000 33.000 713.500 34.500 "/></g>
</svg>
